HIERARCHY
ROOT Pelvis
{
	OFFSET 0.000000 0.000000 0.000000
	CHANNELS 6 Xposition Yposition Zposition Xrotation Yrotation Zrotation
	JOINT LeftUpLeg_virtual
	{
		OFFSET 0.000000 0.000000 0.000000
		CHANNELS 3 Xrotation Yrotation Zrotation
		JOINT LeftUpLeg
		{
			OFFSET 18.735201 -5.666702 -4.541200
			CHANNELS 3 Xrotation Yrotation Zrotation
			JOINT LeftLeg
			{
				OFFSET -0.021200 -31.938179 0.493100
				CHANNELS 3 Xrotation Yrotation Zrotation
				JOINT LeftFoot
				{
					OFFSET 0.021200 -31.938179 -4.336299
					CHANNELS 3 Xrotation Yrotation Zrotation
					JOINT LeftToeBase
					{
						OFFSET 0.943001 -26.722000 15.023500
						CHANNELS 3 Xrotation Yrotation Zrotation
						End Site
						{
							OFFSET 0 0 0
						}
					}
				}
			}
		}
	}
	JOINT RightUpLeg_virtual
	{
		OFFSET 0.000000 0.000000 0.000000
		CHANNELS 3 Xrotation Yrotation Zrotation
		JOINT RightUpLeg
		{
			OFFSET -18.735201 -5.666702 -4.541200
			CHANNELS 3 Xrotation Yrotation Zrotation
			JOINT RightLeg
			{
				OFFSET 0.018946 -31.938133 0.493100
				CHANNELS 3 Xrotation Yrotation Zrotation
				JOINT RightFoot
				{
					OFFSET -0.018946 -31.938126 -4.336299
					CHANNELS 3 Xrotation Yrotation Zrotation
					JOINT RightToeBase
					{
						OFFSET -0.943001 -26.722004 15.023500
						CHANNELS 3 Xrotation Yrotation Zrotation
						End Site
						{
							OFFSET 0 0 0
						}
					}
				}
			}
		}
	}
	JOINT Hips_virtual
	{
		OFFSET 0.000000 0.000000 0.000000
		CHANNELS 3 Xrotation Yrotation Zrotation
		JOINT Hips
		{
			OFFSET -0.000000 -0.000000 -0.000000
			CHANNELS 3 Xrotation Yrotation Zrotation
			JOINT Spine
			{
				OFFSET 0.000000 10.199997 -0.299500
				CHANNELS 3 Xrotation Yrotation Zrotation
				JOINT Spine1
				{
					OFFSET 0.000000 11.900002 -1.516600
					CHANNELS 3 Xrotation Yrotation Zrotation
					JOINT Spine2
					{
						OFFSET 0.000000 13.600006 -2.842500
						CHANNELS 3 Xrotation Yrotation Zrotation
						JOINT Neck_virtual
						{
							OFFSET 0.000000 0.000000 0.000000
							CHANNELS 3 Xrotation Yrotation Zrotation
							JOINT Neck
							{
								OFFSET 0.000000 9.624100 -2.890100
								CHANNELS 3 Xrotation Yrotation Zrotation
								JOINT Head
								{
									OFFSET 0.000000 14.068802 -1.351900
									CHANNELS 3 Xrotation Yrotation Zrotation
									End Site
									{
										OFFSET 0 0 0
									}
								}
							}
						}
						JOINT LeftShoulder_virtual
						{
							OFFSET 0.000000 0.000000 0.000000
							CHANNELS 3 Xrotation Yrotation Zrotation
							JOINT LeftShoulder
							{
								OFFSET 15.263000 10.923401 -0.547700
								CHANNELS 3 Xrotation Yrotation Zrotation
								JOINT LeftArm
								{
									OFFSET 25.438599 -2.830597 -13.032500
									CHANNELS 3 Xrotation Yrotation Zrotation
									JOINT LeftForeArm
									{
										OFFSET 29.960503 0.000000 0.000000
										CHANNELS 3 Xrotation Yrotation Zrotation
										JOINT LeftHand
										{
											OFFSET 27.849251 0.000000 0.000000
											CHANNELS 3 Xrotation Yrotation Zrotation
											End Site
											{
												OFFSET 0 0 0
											}
										}
									}
								}
							}
						}
						JOINT RightShoulder_virtual
						{
							OFFSET 0.000000 0.000000 0.000000
							CHANNELS 3 Xrotation Yrotation Zrotation
							JOINT RightShoulder
							{
								OFFSET -15.263000 10.923401 -0.547700
								CHANNELS 3 Xrotation Yrotation Zrotation
								JOINT RightArm
								{
									OFFSET -25.438599 -2.830597 -13.032500
									CHANNELS 3 Xrotation Yrotation Zrotation
									JOINT RightForeArm
									{
										OFFSET -29.960503 0.000000 0.000000
										CHANNELS 3 Xrotation Yrotation Zrotation
										JOINT RightHand
										{
											OFFSET -27.849251 0.000000 0.000000
											CHANNELS 3 Xrotation Yrotation Zrotation
											End Site
											{
												OFFSET 0 0 0
											}
										}
									}
								}
							}
						}
					}
				}
			}
		}
	}
}
MOTION
Frames: 13
Frame Time: 0.03333333
-2.768894 128.347748 309.810059 0.000000 0.000000 0.000000 6.108276 -35.593277 19.935290 -106.399423 -15.649802 8.577563 115.238296 23.393618 7.469588 -11.476619 -0.569049 9.604058 0.000000 0.000000 0.000000 6.108276 -35.593277 19.935290 -110.590789 -28.696312 -5.215047 103.502603 12.873578 3.328326 27.967027 6.332823 10.013850 0.000000 0.000000 0.000000 6.108276 -35.593277 19.935290 0.000000 -0.000002 0.000000 36.540173 3.607903 -27.922408 10.113559 4.487076 -5.651608 0.000000 0.000000 0.000000 17.344350 -0.255001 0.868255 -2.749942 3.412473 -2.935779 0.000000 0.000000 0.000000 17.344350 -0.255001 0.868255 3.460652 -8.918315 -0.904753 -83.626808 1.219632 -12.071360 20.421654 -61.813116 16.243517 0.000000 0.000000 0.000000 17.344350 -0.255001 0.868255 7.814333 26.927348 -8.074467 -63.242695 -8.464374 33.803617 -75.905470 19.956797 56.360249 0.000000 0.000000 0.000000 
-2.598764 127.975082 314.692535 0.000000 0.000000 0.000000 7.632029 -35.414504 20.337689 -103.696431 -16.111769 10.734996 112.586871 20.524181 7.189570 -12.512422 -0.091894 6.988666 0.000000 0.000000 0.000000 7.632029 -35.414504 20.337689 -108.061304 -27.666947 -4.198253 95.577323 15.342615 6.178586 21.297863 5.550862 11.592868 0.000000 0.000000 0.000000 7.632029 -35.414504 20.337689 0.000000 0.000000 -0.000002 36.256912 3.979756 -27.382189 10.417188 4.343064 -5.637413 0.000000 0.000000 0.000000 17.590059 -0.300815 0.846438 -2.698265 3.307865 -2.943719 0.000000 0.000000 0.000000 17.590059 -0.300815 0.846438 3.732774 -8.938844 -0.897974 -82.664072 -0.098876 -10.383341 13.290172 -62.155111 9.886088 0.000000 0.000000 0.000000 17.590059 -0.300815 0.846438 7.302793 26.569088 -6.881545 -60.118184 -8.940506 34.394114 -76.312754 20.173444 58.156622 0.000000 0.000000 0.000000 
-2.519337 127.282486 319.765472 0.000000 0.000000 0.000000 9.062663 -35.103033 20.695924 -100.919289 -16.094861 11.710302 109.266341 19.349487 7.468508 -13.177447 0.434373 4.523981 0.000000 0.000000 0.000000 9.062663 -35.103033 20.695924 -103.439055 -24.931362 -3.393781 85.206494 17.152458 10.362819 16.519256 4.552927 13.283093 0.000000 0.000000 0.000000 9.062663 -35.103033 20.695924 0.000001 0.000001 -0.000000 35.777453 4.348055 -26.812941 10.724710 4.198464 -5.583330 0.000000 0.000000 0.000000 17.800935 -0.342642 0.829321 -2.550436 3.171313 -2.906975 0.000000 0.000000 0.000000 17.800935 -0.342642 0.829321 4.015666 -8.916285 -0.887799 -82.276739 -1.094247 -8.977286 7.075164 -62.243630 4.213943 0.000000 0.000000 0.000000 17.800935 -0.342642 0.829321 6.746333 26.067562 -5.641313 -56.516475 -9.132690 35.083905 -76.680615 20.592551 59.887037 0.000000 0.000000 0.000000 
-2.506453 126.321732 325.001984 0.000000 0.000000 0.000000 10.363488 -34.652890 21.023882 -97.938588 -15.458234 12.494333 105.671960 19.013881 8.038748 -14.656609 0.883759 2.376594 0.000000 0.000000 0.000000 10.363488 -34.652890 21.023882 -97.928930 -20.448827 -1.988074 73.792606 16.151365 14.928009 15.432276 3.553161 14.757097 0.000000 0.000000 0.000000 10.363488 -34.652890 21.023882 0.000001 -0.000004 -0.000001 35.114098 4.671091 -26.225442 11.018716 4.045010 -5.488551 0.000000 0.000000 0.000000 17.963818 -0.390539 0.823578 -2.320313 3.016080 -2.847543 0.000000 0.000000 0.000000 17.963818 -0.390539 0.823578 4.292264 -8.864044 -0.877264 -82.115300 -1.901182 -7.653572 1.786986 -62.124464 -0.712180 0.000000 0.000000 0.000000 17.963818 -0.390539 0.823578 6.167916 25.450306 -4.367980 -52.538280 -9.038839 35.874390 -76.979128 21.195506 61.458957 0.000000 0.000000 0.000000 
-2.553333 125.072990 330.321869 0.000000 0.000000 0.000000 11.528617 -34.119807 21.298847 -95.278093 -14.588799 13.235315 102.236519 18.485641 8.456895 -16.210445 1.194888 0.950545 0.000000 0.000000 0.000000 11.528617 -34.119807 21.298847 -92.292665 -14.327498 -0.532385 62.681753 12.202158 18.494942 15.963872 3.882897 16.660358 0.000000 0.000000 0.000000 11.528617 -34.119807 21.298847 -0.000001 0.000003 0.000000 34.281058 4.992692 -25.624916 11.281674 3.874415 -5.352227 0.000000 0.000000 0.000000 18.065649 -0.454591 0.835905 -2.020428 2.852613 -2.785995 0.000000 0.000000 0.000000 18.065649 -0.454591 0.835905 4.491553 -8.733906 -0.871716 -81.674746 -2.197577 -6.386342 -2.687170 -62.302472 -4.885835 0.000000 0.000000 0.000000 18.065649 -0.454591 0.835905 5.587791 24.745909 -3.074824 -48.292815 -8.678178 36.751479 -77.194450 21.926488 62.804027 0.000000 0.000000 0.000000 
-2.541382 123.707993 335.447968 0.000000 0.000000 0.000000 12.585787 -33.627173 21.477192 -92.689956 -13.522658 14.337446 98.187357 17.869211 8.647588 -17.194767 1.399339 0.022460 0.000000 0.000000 0.000000 12.585787 -33.627173 21.477192 -86.396811 -8.027962 0.198374 52.607548 6.608435 20.686382 18.099132 3.709151 16.855473 0.000000 0.000000 0.000000 12.585787 -33.627173 21.477192 0.000001 -0.000001 0.000001 33.292545 5.440269 -25.019393 11.496440 3.678321 -5.173561 0.000000 0.000000 0.000000 18.093490 -0.544865 0.872985 -1.663958 2.691192 -2.746013 0.000000 0.000000 0.000000 18.093490 -0.544865 0.872985 4.628217 -8.537112 -0.869789 -81.008530 -2.194269 -5.076132 -6.354846 -62.591321 -8.346995 0.000000 0.000000 0.000000 18.093490 -0.544865 0.872985 5.022796 23.984199 -1.773805 -43.895283 -8.087574 37.705144 -77.297708 22.755468 63.861832 0.000000 0.000000 0.000000 
-2.523579 122.059517 340.617554 0.000000 0.000000 0.000000 13.473017 -33.103926 21.611717 -90.182109 -12.269217 15.780683 93.622202 16.575515 8.301922 -17.510805 1.380207 -0.012158 0.000000 0.000000 0.000000 13.473017 -33.103926 21.611717 -79.198898 -3.203426 -0.009915 42.365730 0.199833 20.502498 21.911387 4.305855 16.787261 0.000000 0.000000 0.000000 13.473017 -33.103926 21.611717 0.000000 -0.000003 0.000001 32.164522 5.885753 -24.417730 11.645825 3.448440 -4.951761 0.000000 0.000000 0.000000 18.034454 -0.671427 0.941510 -1.263844 2.541153 -2.750054 0.000000 0.000000 0.000000 18.034454 -0.671427 0.941510 4.741229 -8.305372 -0.868959 -80.328878 -1.999025 -3.778797 -9.476599 -62.849051 -11.332062 0.000000 0.000000 0.000000 18.034454 -0.671427 0.941510 4.486449 23.195777 -0.475380 -39.425167 -7.371957 38.728242 -77.263441 23.723890 64.639032 0.000000 0.000000 0.000000 
-2.364111 120.372025 345.663818 0.000000 0.000000 0.000000 14.195455 -32.621270 21.686108 -87.609826 -10.764697 17.562206 88.876129 15.673761 7.370233 -17.881562 1.279657 0.166689 0.000000 0.000000 0.000000 14.195455 -32.621270 21.686108 -71.352486 -3.707990 -1.258757 32.556575 -2.870207 17.903529 25.795830 5.542552 13.219660 0.000000 0.000000 0.000000 14.195455 -32.621270 21.686108 0.000001 0.000001 -0.000000 30.913098 6.387233 -23.822807 11.713079 3.176387 -4.686057 0.000000 0.000000 0.000000 17.875809 -0.844345 1.048173 -0.834203 2.412017 -2.819997 0.000000 0.000000 0.000000 17.875809 -0.844345 1.048173 4.796429 -8.021120 -0.872279 -79.561581 -1.516588 -2.435005 -7.619631 -63.651441 -10.006784 0.000000 0.000000 0.000000 17.875809 -0.844345 1.048173 3.988567 22.412183 0.811410 -35.075784 -6.535779 39.823264 -76.992577 24.850057 64.975084 0.000000 0.000000 0.000000 
-2.220524 118.373947 350.862030 0.000000 0.000000 0.000000 14.671260 -32.062653 21.781144 -84.979342 -8.937953 19.498848 84.160136 14.402806 5.778831 -18.706095 1.063390 0.754417 0.000000 0.000000 0.000000 14.671260 -32.062653 21.781144 -62.213406 -7.438267 -2.430235 20.511936 -3.776751 13.501119 31.983320 7.016301 9.378612 0.000000 0.000000 0.000000 14.671260 -32.062653 21.781144 -0.000001 -0.000001 0.000002 29.556325 6.755176 -23.254205 11.681720 2.853815 -4.375726 0.000000 0.000000 0.000000 17.605219 -1.073672 1.199696 -0.164814 2.312127 -2.986293 0.000000 0.000000 0.000000 17.605219 -1.073672 1.199696 4.565658 -7.492461 -0.881670 -77.816373 0.031049 -0.919152 -13.482641 -64.902247 -15.826546 0.000000 0.000000 0.000000 17.605219 -1.073672 1.199696 3.535841 21.665481 2.078723 -30.848027 -5.816528 40.996561 -76.509559 26.207788 65.027397 0.000000 0.000000 0.000000 
-2.114376 115.905037 356.306091 0.000000 0.000000 0.000000 14.841492 -31.359478 21.974279 -82.141084 -6.835620 20.615751 79.029407 14.193104 4.118464 -19.461045 0.801433 1.563334 0.000000 0.000000 0.000000 14.841492 -31.359478 21.974279 -49.023683 -9.283904 -0.866377 -0.399524 -6.012852 6.720105 44.611773 9.129434 4.685174 0.000000 0.000000 0.000000 14.841492 -31.359478 21.974279 -0.000000 -0.000002 -0.000002 28.116465 6.854726 -22.754871 11.535651 2.472323 -4.020044 0.000000 0.000000 0.000000 17.210788 -1.369462 1.402800 0.536597 2.240571 -3.292853 0.000000 0.000000 0.000000 17.210788 -1.369462 1.402800 4.221623 -6.838401 -0.874598 -75.790675 1.978775 0.776832 -19.944052 -65.992434 -22.456328 0.000000 0.000000 0.000000 17.210788 -1.369462 1.402800 3.131665 20.988258 3.319574 -26.839380 -5.358340 42.259463 -75.779542 27.840771 64.805463 0.000000 0.000000 0.000000 
-2.155998 111.863846 362.301300 0.000000 0.000000 0.000000 13.801639 -30.209141 22.248436 -80.068061 -5.390218 20.608224 76.577827 14.261943 2.828812 -21.013362 1.034142 0.514608 0.000000 0.000000 0.000000 13.801639 -30.209141 22.248436 -46.096995 -8.587095 -4.911863 -0.326927 -3.036798 7.305632 46.126057 8.472448 1.130759 0.000000 0.000000 0.000000 13.801639 -30.209141 22.248436 0.000001 0.000002 0.000001 25.849665 6.470428 -22.409079 10.942350 1.855178 -3.382977 0.000000 0.000000 0.000000 16.236364 -1.919347 1.822898 1.120204 2.231542 -3.369067 0.000000 0.000000 0.000000 16.236364 -1.919347 1.822898 3.807866 -6.157173 -0.873232 -73.856844 4.256281 2.362827 -22.687768 -66.887127 -25.782064 0.000000 0.000000 0.000000 16.236364 -1.919347 1.822898 2.726926 20.231124 4.576429 -20.939963 -6.450165 44.303073 -76.082700 31.763733 67.387568 0.000000 0.000000 0.000000 
-2.081505 107.749420 368.223724 0.000000 0.000000 0.000000 12.222019 -28.967522 21.695821 -77.890542 -4.150493 21.057468 73.909982 14.397199 1.234983 -22.484085 1.366915 -0.827206 0.000000 0.000000 0.000000 12.222019 -28.967522 21.695821 -41.106066 -6.612827 -7.128060 -1.901810 0.510629 5.980205 46.595315 7.522591 -0.004262 0.000000 0.000000 0.000000 12.222019 -28.967522 21.695821 0.000000 -0.000001 0.000000 23.943665 5.973401 -21.272365 10.122872 1.132074 -2.867444 0.000000 0.000000 0.000000 15.031033 -2.636499 2.139112 1.670839 2.289353 -3.436794 0.000000 0.000000 0.000000 15.031033 -2.636499 2.139112 3.368200 -5.546172 -0.904583 -72.385375 6.257797 3.733894 -24.329038 -68.060130 -28.126791 0.000000 0.000000 0.000000 15.031033 -2.636499 2.139112 2.282012 19.232004 5.889425 -15.201682 -7.778567 46.102165 -77.590778 36.538264 71.529921 0.000000 0.000000 0.000000 
-1.640556 104.419991 373.897095 0.000000 0.000000 0.000000 10.513437 -28.135182 20.095152 -74.800127 -2.902740 22.041721 68.371409 14.056610 -0.352665 -21.414410 1.630578 -2.081460 0.000000 0.000000 0.000000 10.513437 -28.135182 20.095152 -34.817101 -4.283916 -8.197923 -0.394665 3.437053 5.503693 38.581041 5.958042 -1.546707 0.000000 0.000000 0.000000 10.513437 -28.135182 20.095152 0.000000 0.000000 -0.000001 22.808047 5.950670 -18.607107 9.062649 0.487028 -2.588612 0.000000 0.000000 0.000000 13.571187 -3.395313 2.184567 2.104307 2.400825 -3.551992 0.000000 0.000000 0.000000 13.571187 -3.395313 2.184567 2.947105 -5.102436 -1.000638 -71.386740 7.923954 4.189256 -24.846954 -68.975567 -29.254615 0.000000 0.000000 0.000000 13.571187 -3.395313 2.184567 1.879713 18.211123 7.180388 -9.111542 -9.902388 47.245966 -80.998448 41.398419 77.738515 0.000000 0.000000 0.000000 
